<svg xmlns="http://www.w3.org/2000/svg" viewBox="0 0 64 80" x="0px" y="0px"><title>flower, rose, bouquet, wedding, valentine</title><g data-name="10. Bouquet of flowers"><path d="M61.63,34.19l-2.68,1.23C56.4,36.59,57.73,37,30.11,9.34c-2.58-2.58-2.18-2.87-.3-6.97a1.5,1.5,0,0,1,1.99-.73A7.6,7.6,0,0,1,36.35,6c3.157-1.143,5.321.167,7.57,1.2a1.517,1.517,0,0,1,.85,1.09c.928-.024,1.4.765,2.7,2.06A7.228,7.228,0,0,1,49.6,15.4c3.15.05,6.14,2.5,6.11,3.83a1.518,1.518,0,0,1,1.09.85c.99,2.15,2.35,4.38,1.21,7.57,2.4.94,3.42,2.52,4.35,4.55A1.5,1.5,0,0,1,61.63,34.19ZM37.08,50.14c-.81-2.92-2.81-2.89-11.33-5.06a4.217,4.217,0,0,0-.9-4.68c-1.12-1.12-3.03-3.47-5.94-2.15-1.11-4.33-.63-2.47-2.13-8.36a4.145,4.145,0,0,0-6.95-1.9c-7.26,7.26-9,8.15-8.18,11.14.74,2.7,2.51,2.88,9.31,4.55-4.746,1.964-7.293,2.4-7.58,5.52-.4,4.112,3.682,3.577,7.54,9.55a4.158,4.158,0,0,0,3.87,1.87c3.166-.29,3.605-2.93,5.53-7.59l1.63,6.35a4.138,4.138,0,0,0,6.94,1.9C36.19,53.99,37.9,53.12,37.08,50.14Zm1.35-22.83c-.491-7.288-4.765-10.176-12.256-17.666a1,1,0,0,0-1.677.45c.1-.39-5.243,19.646-5.143,20.037l1.3,5.109c.435,1.71,2.536-.5,4.947,1.91,1.292,1.292,2.607,2.308,2.491,4.477C27.894,45.318,39.136,38.18,38.43,27.31ZM54.359,37.829c-22.352-22.352-5.417-7.582-19.4,4.7a1,1,0,0,0,.866,1.74c2.321-.543,7.089-1.88,18.073-4.769A1,1,0,0,0,54.359,37.829Z"/></g><text x="0" y="79" fill="#000000" font-size="5px" font-weight="bold" font-family="'Helvetica Neue', Helvetica, Arial-Unicode, Arial, Sans-serif">Created by omeneko</text><text x="0" y="84" fill="#000000" font-size="5px" font-weight="bold" font-family="'Helvetica Neue', Helvetica, Arial-Unicode, Arial, Sans-serif">from the Noun Project</text></svg>