<svg height='100px' width='100px'  fill="#000000" xmlns="http://www.w3.org/2000/svg" viewBox="0 0 43.29 44.71" x="0px" y="0px"><defs><style>.cls-1{fill:#000000;}</style></defs><title>Asset 19</title><g data-name="Layer 2"><g><g data-name="New Symbol 18"><path class="cls-1" d="M21.65,44.71,17,42.76l-6.68.83L7.45,40.93H0L15.65,10.66l-3.22-8L15,0H28.34l2.53,2.65-3.22,8L43.29,40.93H35.84L33,43.6l-6.68-.83ZM17.25,41l4.4,1.85L26,41l6.34.79,2.79-2.58H40.5L25.78,10.75,28.88,3,27.61,1.7H15.68L14.41,3l3.1,7.72L2.79,39.23H8.12l2.79,2.58Z"></path><rect class="cls-1" x="16.1" y="9.58" width="10.61" height="1.7"></rect></g></g></g></svg>