<svg xmlns="http://www.w3.org/2000/svg" data-name="Layer 1" viewBox="0 0 100 125" x="0px" y="0px"><title>Artboard 56</title><path d="M26,98A12,12,0,0,0,38,86V49.92A20,20,0,0,0,46,34V22A20,20,0,0,0,6,22V34a20,20,0,0,0,8,15.92V86A12,12,0,0,0,26,98ZM14,22a12,12,0,0,1,24,0V34a11.87,11.87,0,0,1-6,10.32,4,4,0,0,0-2,3.46V86a4,4,0,0,1-8,0V47.78a4,4,0,0,0-2-3.46A11.87,11.87,0,0,1,14,34Z"/><path d="M58,2a4,4,0,0,0-4,4V38a12,12,0,0,0,8,11.31V86a12,12,0,0,0,24,0V49.31A12,12,0,0,0,94,38V6a4,4,0,0,0-8,0V26H78V6a4,4,0,0,0-8,0V26H62V6A4,4,0,0,0,58,2ZM86,34v4a4,4,0,0,1-4,4,4,4,0,0,0-4,4V86a4,4,0,0,1-8,0V46a4,4,0,0,0-4-4,4,4,0,0,1-4-4V34Z"/><text x="0" y="115" fill="#000000" font-size="5px" font-weight="bold" font-family="'Helvetica Neue', Helvetica, Arial-Unicode, Arial, Sans-serif">Created by Gregor Cresnar</text><text x="0" y="120" fill="#000000" font-size="5px" font-weight="bold" font-family="'Helvetica Neue', Helvetica, Arial-Unicode, Arial, Sans-serif">from the Noun Project</text></svg>