<svg xmlns="http://www.w3.org/2000/svg" data-name="Layer 1" viewBox="0 0 100 125" x="0px" y="0px"><title>Artboard 567</title><circle cx="50.79" cy="25.84" r="4"/><path d="M3.14,41.88h0a3.63,3.63,0,0,0,3.65,3.61c3.22,0,6.43-.09,9.65-.13a80.11,80.11,0,0,0,.1,29.69,3.74,3.74,0,0,0-.69.57v0l-12,16a3.73,3.73,0,0,0-.74,2.23,3.67,3.67,0,0,0,3.7,3.67c14.91,0,30-.39,44.74-1l43-1.87c1,0,1.06-.38.23-.8.83.43,1.09.12.59-.74l-.14-.23c-3.11-5.16-6.59-11.06-10.47-16.46a80.54,80.54,0,0,0,0-33l9.29-.35c1.07,0,1.39-.58.74-1.24.65.67,1.25.32,1.39-.84l0-.32c.33-3.47.6-7.17.7-10.84a2,2,0,0,0-1-1.8L95.81,28Q74.21,15.24,52.4,2.89a3.28,3.28,0,0,0-3.13-.05l-.1.05Q27,14.55,5,26.59l0,0a3.69,3.69,0,0,0-1.91,3.23l.06,12Zm45.3,32.64c-3.76-.07-7.52-.09-11.28-.13a80.27,80.27,0,0,0-.1-29.4c3.84-.09,7.69-.18,11.51-.29A80.17,80.17,0,0,0,48.44,74.52ZM53,44.57l11.69-.4a80.49,80.49,0,0,0-.16,30.74c-3.8-.09-7.6-.22-11.39-.3A80.5,80.5,0,0,0,53,44.57ZM32.4,74.33c-3.73,0-7.47-.11-11.2-.14a80.37,80.37,0,0,0-.08-28.89c3.8-.06,7.58-.1,11.37-.19A80.17,80.17,0,0,0,32.4,74.33ZM92.09,91.78a12,12,0,0,0,2.69,2.06,9.58,9.58,0,0,0-3.27-.8h-.28c-14.75-.49-29.11-1.26-43.05-1.87-11.49-.5-22.77-.78-34.09-.91l6.56-8.75q30.51-.18,61-1.18c3.14,3.83,6.62,7.33,10.42,11.46ZM80.59,75.33c-3.85-.12-7.7-.19-11.56-.3a80.3,80.3,0,0,0-.16-31l11.91-.43A80.56,80.56,0,0,0,80.59,75.33ZM50.85,9.66Q71.7,20.6,92.74,31.19c.14,2.48.36,5,.65,7.62h0a6.18,6.18,0,0,0,1.38,3,5.26,5.26,0,0,0-3.13-1.23l-.31,0c-27.81-1-54.38-2.12-80.89-2.34l0-6.22Q30.74,21,50.85,9.66Z"/><text x="0" y="115" fill="#000000" font-size="5px" font-weight="bold" font-family="'Helvetica Neue', Helvetica, Arial-Unicode, Arial, Sans-serif">Created by Gregor Cresnar</text><text x="0" y="120" fill="#000000" font-size="5px" font-weight="bold" font-family="'Helvetica Neue', Helvetica, Arial-Unicode, Arial, Sans-serif">from the Noun Project</text></svg>