<svg xmlns="http://www.w3.org/2000/svg" xmlns:xlink="http://www.w3.org/1999/xlink" version="1.1" x="0px" y="0px" viewBox="0 0 100 125" enable-background="new 0 0 100 100" xml:space="preserve"><g><path d="M72.493,44.379c0.006-0.129-0.014-0.262-0.062-0.391l-3.5-9.46c-0.067-0.183-0.188-0.343-0.345-0.458l-6.276-4.616   c-0.274-2.353-2.257-4.19-4.682-4.19c-0.153,0-0.298,0.031-0.447,0.045l6.887-7.46c0.362-0.392,0.353-0.999-0.021-1.379   l-5.856-5.962c-0.188-0.191-0.445-0.299-0.714-0.299H40.109c-0.254,0-0.498,0.097-0.683,0.27l-6.371,5.962   c-0.401,0.375-0.424,1.004-0.052,1.408l7.046,7.632c-0.428-0.127-0.873-0.217-1.341-0.217c-2.612,0-4.737,2.125-4.737,4.737   c0,0.041,0.011,0.079,0.012,0.12l-5.213,3.959c-0.151,0.115-0.267,0.271-0.333,0.449l-3.455,9.337   c-4.355,5.278-6.974,12.04-6.974,19.401c0,16.833,13.695,30.527,30.528,30.527S79.063,80.1,79.063,63.267   C79.063,56.139,76.602,49.58,72.493,44.379z M69.088,40.712c-2.936-2.677-6.395-4.789-10.202-6.165   c1.438-0.399,2.602-1.445,3.143-2.818l5.132,3.774L69.088,40.712z M60.366,30c0,1.156-0.722,2.141-1.737,2.542V30   c0-0.552-0.447-1-1-1s-1,0.448-1,1v2.542c-1.016-0.401-1.737-1.386-1.737-2.542c0-1.509,1.228-2.737,2.737-2.737   S60.366,28.491,60.366,30z M54.222,33.276c-1.29-0.244-2.606-0.411-3.947-0.486l2.622-2.841c0,0.018-0.005,0.033-0.005,0.051   C52.892,31.272,53.402,32.424,54.222,33.276z M47.536,25.499l-2.144-7.33h2.144V25.499z M49.536,18.169h2.4l-2.4,8.208V18.169z    M54.021,18.169h3.174l-5.626,8.38L54.021,18.169z M49.536,16.169v-2.101l1.673,2.101H49.536z M47.536,16.169h-1.673l1.673-2.101   V16.169z M43.308,18.169l2.451,8.379l-5.624-8.379H43.308z M39.911,16.169l1.67-2.751l1.13,2.751H39.911z M59.604,18.169h1.446   l-5.302,5.743L59.604,18.169z M54.56,16.169l1.13-2.751l1.67,2.751H54.56z M52.863,15.036l-2.252-2.829h3.415L52.863,15.036z    M44.34,14.872l-1.095-2.665h3.216L44.34,14.872z M37.571,16.169h-1.3l3.012-2.818L37.571,16.169z M37.727,18.169l4.54,6.764   l-6.244-6.764H37.727z M60.95,16.169h-1.251l-2.024-3.334L60.95,16.169z M46.798,32.79c-1.669,0.094-3.302,0.327-4.89,0.681   c0.938-0.866,1.537-2.096,1.537-3.471c0-0.324-0.033-0.64-0.096-0.945L46.798,32.79z M38.708,27.263   c1.509,0,2.737,1.228,2.737,2.737c0,1.156-0.723,2.141-1.737,2.542V30c0-0.552-0.448-1-1-1s-1,0.448-1,1v2.542   c-1.015-0.401-1.737-1.386-1.737-2.542C35.971,28.491,37.199,27.263,38.708,27.263z M30.212,35.495l4.33-3.289   c0.674,1.267,1.892,2.193,3.352,2.448c-3.507,1.309-6.707,3.248-9.47,5.673L30.212,35.495z M48.536,91.794   c-15.73,0-28.528-12.797-28.528-28.527c0-15.731,12.797-28.529,28.528-28.529s28.527,12.798,28.527,28.529   C77.063,78.997,64.267,91.794,48.536,91.794z"/><path d="M48.536,36.865c-14.557,0-26.4,11.844-26.4,26.401c0,14.557,11.843,26.399,26.4,26.399   c14.557,0,26.399-11.843,26.399-26.399C74.936,48.709,63.093,36.865,48.536,36.865z M48.536,87.666   c-13.454,0-24.4-10.945-24.4-24.399c0-13.455,10.946-24.401,24.4-24.401s24.399,10.946,24.399,24.401   C72.936,76.721,61.99,87.666,48.536,87.666z"/></g><text x="0" y="115" fill="#000000" font-size="5px" font-weight="bold" font-family="'Helvetica Neue', Helvetica, Arial-Unicode, Arial, Sans-serif">Created by Creative Mania</text><text x="0" y="120" fill="#000000" font-size="5px" font-weight="bold" font-family="'Helvetica Neue', Helvetica, Arial-Unicode, Arial, Sans-serif">from the Noun Project</text></svg>